# xmcd CD database file
#
# Track frame offsets:
#	150
#	17554
#	36144
#	55273
#	72446
#	87909
#	107855
#	129788
#	149083
#	163754
#
# Disc length: 2444 seconds
#
# Revision: 1
# Processed by: cddbd v1.5.1PL0 Copyright (c) Steve Scherf et al.
# Submitted via: CDex 1.51
#
DISCID=89098a0a
DTITLE=Jetty Road - Full Circle
DYEAR=2004
DGENRE=Country
TTITLE0=Run To You
TTITLE1=Thank God
TTITLE2=Bad Boy Serenade
TTITLE3=Heart And Soul
TTITLE4=Tell Me It's Over
TTITLE5=Wait For Tomorrow
TTITLE6=Be With You
TTITLE7=Better Place
TTITLE8=The Look In Your Eyes
TTITLE9=Doesn't Matter
EXTD=YEAR: 2004
EXTT0=
EXTT1=
EXTT2=
EXTT3=
EXTT4=
EXTT5=
EXTT6=
EXTT7=
EXTT8=
EXTT9=
PLAYORDER=
